<?xml version="1.0" encoding="utf-8"?>
<!-- Generator: Adobe Illustrator 23.0.1, SVG Export Plug-In . SVG Version: 6.00 Build 0)  -->
<svg version="1.1" id="Layer_1" xmlns="http://www.w3.org/2000/svg" xmlns:xlink="http://www.w3.org/1999/xlink" x="0px" y="0px"
	 viewBox="0 0 600 600" style="enable-background:new 0 0 600 600;" xml:space="preserve">
<style type="text/css">
	.st0{fill:#FFE6BB;}
	.st1{opacity:0.67;}
	.st2{fill:#F9B000;}
	.st3{fill:#EDE9ED;}
	.st4{fill:#F7D2A1;}
	.st5{fill:#161F1E;}
	.st6{fill:#EABD89;}
	.st7{fill:#FCC450;}
	.st8{fill:#FFFFFF;}
	.st9{fill:#251F3D;}
	.st10{fill:#332D49;}
	.st11{fill:#44273E;}
	.st12{fill:#7EADDD;}
	.st13{fill:#96BDE5;}
	.st14{fill:#CEE2F6;}
</style>
<path class="st0" d="M395.9,123.3C347.5,77.5,292.2,18,243.5,28.1c-62.1,12.9-57.8,142-125.2,217.7C68.2,302.2,16.7,327,8,363.1
	c-19,79,74.9,181.3,206.1,210.4c125.8,27.8,340.2-31.6,358.6-133.5c4-22.4,2.6-129.4-61.2-206C450.3,160.4,429.5,155.1,395.9,123.3z
	"/>
<g class="st1">
	<ellipse class="st2" cx="313.6" cy="508.9" rx="178.9" ry="12"/>
</g>
<g>
	<g>
		<g>
			<g>
				<path class="st3" d="M384.1,506.7c0,0,18.3,3.1,38,3.1c18.3,0,35.9-3.1,35.9-3.1l-1.4-3.2c-6.3-14-30.1-8.5-35.5-23l0,0
					c-4.5,14.4-29.2,9-35.5,23L384.1,506.7z"/>
			</g>
			<g>
				<rect x="416.5" y="398.3" class="st3" width="9.9" height="92.8"/>
			</g>
			<g>
				<polygon class="st4" points="419.4,483.5 415,474 405.6,477.5 408.2,487.3 				"/>
			</g>
			<g>
				<path class="st5" d="M419.4,483.4l2.3,7.7l-10,3.2c0,0-22.6,9.5-26.8,5.1c-1.9-2,5.4-4,10.2-7.1c4.7-3.1,12.2-7.5,12.2-7.5
					S413.6,484.9,419.4,483.4z"/>
			</g>
			<g>
				<polygon class="st4" points="369.3,497.5 367.8,487.2 357.7,487.9 357.5,497.9 				"/>
			</g>
			<g>
				<path class="st5" d="M369.3,497.3v8.1l-10.5,0.2c0,0-24.4,2.7-27.2-2.7c-1.3-2.5,6.3-2.3,11.8-4c5.4-1.7,13.8-3.8,13.8-3.8
					S363.4,497.2,369.3,497.3z"/>
			</g>
			<g>
				<g>
					<path class="st6" d="M278.2,320l13.9-4.6l12.3,3.1c6.9-1.8,9.2-1.7,23.5-5.4c12-3.1,25.8-9.2,25.8-9.2l10.2-17.1
						c6.6,0.6,20.5,7.8,20.5,7.8s-19,25.8-24.4,27.6c-5.4,1.8-41.9,6.2-55.8,4.7c-4.4-0.5-12.9-5.1-12.9-5.1l-11,1.8l-8.6,5.8
						l-1.5-1.2l3.4-3.7L278.2,320z"/>
				</g>
				<g>
					<path class="st7" d="M374.4,254.2c0,0,17.7,3,17.4,18.9c-0.2,10.4-14.4,29.7-14.4,29.7S369.6,292,360,289c0,0,6.2-18.3,8.2-24
						C370.5,257.7,374.4,254.2,374.4,254.2z"/>
				</g>
			</g>
			<g>
				<rect x="404" y="395.6" class="st3" width="35.1" height="18.9"/>
			</g>
			<g>
				<path class="st3" d="M408.6,322c-1.7-22.9-3-45.8-3.7-68.8c21.7-9.7,70.2-5.4,74.7,9c4.8,15.2-13.5,58.6-13.5,74.8
					c0,16.2,6.3,27.9,7.2,35.1c0.9,7.2-3.6,12.6-3.6,12.6h-55.6C412.8,363.8,410.2,342.9,408.6,322z"/>
			</g>
			<g>
				<path class="st8" d="M408.6,322c-1.8-23.9-3.1-47.8-3.8-71.7c23.9-5.6,61.8-0.7,65.8,11.9c4.8,15.2-13.5,58.6-13.5,74.8
					c0,16.2,6.3,27.9,7.2,35.1c0.9,7.2-3.6,12.6-3.6,12.6h-46.5C412.8,363.8,410.2,342.9,408.6,322z"/>
			</g>
			<g>
				<path class="st8" d="M365.2,401.9h96.6c4.4,0,8-3.6,8-8v-9.2H365.2V401.9z"/>
			</g>
			<g>
				<path class="st9" d="M385,345.4c0,0-50,29.7-53,42c-3.5,14.6,20.4,101.3,20.4,101.3c5.7,3.8,16.1,2.5,20-0.9
					c0,0-19.3-74.2-17.2-79.1c5.1-12.1,49-26.6,62.8-39.8c13.8-13.2,15-25.8,15-25.8L385,345.4z"/>
			</g>
			<g>
				<path class="st10" d="M442.2,332.1c0,0,17,35.5,1.7,49.9c-7,6.6-49,0.6-51.4,7.2l25.3,84.2c0,0-4.5,2.7-13.5,7.2
					c0,0-52.7-92.9-47.3-104.9c5.4-12,41.8-18.9,43.6-25.5c1.8-6.6,3-17.4,3-17.4L442.2,332.1z"/>
			</g>
			<g>
				<path class="st4" d="M369.9,235.8c1.1,4.1,3,8.7,7.1,10c3.7,1.2,7.7-0.8,11-2.8c4-2.4,8-4.9,10.5-8.8c3.8-5.8,7-13,6.5-20
					c-0.2-2.5-3.8-5.5-5.3-7.5c-1.1-1.4-2.6-2.3-4.2-3c-3.7-1.8-7.7-3-11.8-3.7c-6.8-1.1-14.4,0.4-15.8,7.9
					C366.3,216.9,367.6,227.1,369.9,235.8z"/>
			</g>
			<g>
				<path class="st11" d="M379.9,219.9c0,1,0.8,1.9,1.9,1.9c1,0,1.9-0.8,1.9-1.9c0-1-0.8-1.9-1.9-1.9
					C380.8,218,379.9,218.9,379.9,219.9z"/>
			</g>
			<g>
				<path class="st11" d="M369.3,219.9c0,1,0.8,1.9,1.9,1.9c1,0,1.9-0.8,1.9-1.9c0-1-0.8-1.9-1.9-1.9
					C370.1,218,369.3,218.9,369.3,219.9z"/>
			</g>
			<g>
				<g>
					<path class="st11" d="M383.5,226.7c-3.6,0-6.5-2.9-6.5-6.5s2.9-6.5,6.5-6.5s6.5,2.9,6.5,6.5S387,226.7,383.5,226.7z
						 M383.5,214.9c-2.9,0-5.3,2.4-5.3,5.3c0,2.9,2.4,5.3,5.3,5.3s5.3-2.4,5.3-5.3C388.8,217.3,386.4,214.9,383.5,214.9z"/>
				</g>
				<g>
					<path class="st11" d="M373.6,216.7l-1-0.7c0.8-1.1,2-1.7,3.3-1.8c1.5-0.1,2.9,0.5,3.9,1.6l-0.9,0.8c-0.8-0.8-1.9-1.3-3-1.2
						C375.1,215.5,374.2,215.9,373.6,216.7z"/>
				</g>
				<g>
					<path class="st11" d="M369.1,226.7c-3.6,0-6.5-2.9-6.5-6.5s2.9-6.5,6.5-6.5s6.5,2.9,6.5,6.5S372.7,226.7,369.1,226.7z
						 M369.1,214.9c-2.9,0-5.3,2.4-5.3,5.3c0,2.9,2.4,5.3,5.3,5.3s5.3-2.4,5.3-5.3C374.4,217.3,372,214.9,369.1,214.9z"/>
				</g>
			</g>
			<g>
				<path class="st4" d="M418.1,247c0,0-0.1-1.3-4.9-2.6c-1.4-0.3-3.1-0.3-4.2-1.3c-3.9-3.4-7.5-9.7-8.8-14.4
					c-0.2-0.7-0.4-1.4-0.2-2.1c-3.2,2.8-6.4,5.6-9.4,8.6c-1,1-7.3,0.4-6.5,1.8c0.2,0.4,1.8,4,3.4,7.6c-3,2-6.4,4.6-6.4,4.6
					l-4.2,23.4l12.3,6.9c0,0,13.8-3,22.8-7.8C421.1,267,418.1,247,418.1,247z"/>
			</g>
			<g>
				<path class="st2" d="M413.2,244.5c0,0-3.6,6.6-12.6,10.5s-17.1-7.8-17.1-7.8l-9.1,7c0,0-0.8,31.9,3.1,49.4
					c3.9,17.4,7.5,41.9,7.5,41.9s4,5.9,9.2,6.3c6.3,0.4,15-4.5,28.7-2c15.2,2.7,26.5,0.3,26.5,0.3S437.7,293,435,281.5
					c-2.7-11.4-9.7-34.8-9.7-34.8S419.3,245.1,413.2,244.5z"/>
			</g>
			<g>
				<g>
					<path class="st3" d="M253.4,329.6h53.2V325h-56.3v1.5C250.4,328.2,251.8,329.6,253.4,329.6z"/>
				</g>
				<g>
					<path class="st8" d="M270.7,273.4c1.6,0,3,1,3.5,2.4l17.9,49.3l-1.1,0.5l0.3,0.9l-40.9-1.4L233,278.4c-0.9-2.4,0.9-5,3.5-5
						H270.7z"/>
				</g>
				<g>
					<path class="st3" d="M256.8,302.5c1.2,4.7,3.6,8.4,5.3,8.3c1.7-0.1,2.1-3.9,0.9-8.6s-3.6-8.4-5.3-8.3
						C256,294.1,255.6,297.9,256.8,302.5z"/>
				</g>
			</g>
			<g>
				<g>
					<path class="st11" d="M376.1,215.9c0.1,3.6-1.4,6.3-2.9,9.5c-0.7,1.4-1.2,3.3-0.7,4.8c0.1,0.2,0.3,0.4,0.5,0.4
						c1.4,0,3-1,4.3-1.6c0.5-0.2,0.2-1.1-0.4-0.9c-0.6,0.2-1.2,0.5-1.8,0.7c-1.3,0.4-1.5,0.6-1.6-0.8c-0.1-1.7,1.4-3.5,2.1-5.1
						c0.9-2.3,1.3-4.5,1.1-6.9C376.6,215.5,376,215.5,376.1,215.9L376.1,215.9z"/>
				</g>
			</g>
			<g>
				<g>
					<path class="st11" d="M380.9,212.5c0.7,0.2,1.5,0.2,2.3,0.3s1.6,0.2,2.4,0.3c1,0.1,1.3-1.7,0.2-1.8c-1.5-0.2-3.4-0.6-5-0.2
						C380.1,211.2,380.2,212.3,380.9,212.5L380.9,212.5z"/>
				</g>
			</g>
			<g>
				<g>
					<path class="st11" d="M368.9,212.6c1.3,0.2,2.6,0,3.9,0.1c1.2,0.1,1.2-1.7,0-1.9c-1.3-0.1-2.9-0.1-4,0.7
						C368.4,211.8,368.3,212.5,368.9,212.6L368.9,212.6z"/>
				</g>
			</g>
			<g>
				<g>
					<path class="st11" d="M389.4,219c1.3-0.1,2.5-0.6,3.7-1s2.5-0.7,3.6-1.3c0.4-0.2,0.2-0.8-0.2-0.8c-1.3,0-2.5,0.5-3.7,0.9
						s-2.5,0.8-3.6,1.5C388.9,218.4,389,219,389.4,219L389.4,219z"/>
				</g>
			</g>
			<g>
				<g>
					<path class="st10" d="M380,209.6c-5.8-0.4-12-0.4-17.1-3.1c-2.5-1.3-4.7-3.4-5.2-6s1.4-5.6,4.3-5.8c0.6,0,1.2,0,1.7-0.3
						c0.6-0.4,0.7-1.2,0.8-1.9c0.6-4.6,4.5-9.3,9.6-9.2c4.1,0.1,7.9,3.3,11.9,2.3c1.2-0.3,2.3-1,3.4-1.5c3.4-1.6,7.3-2.2,11.1-1.5
						c3.9,0.7,8.1,3.8,7.2,7.4c-0.3,1.2-1.2,2.3-1.4,3.5c-0.8,4.4,6.1,6.5,7.5,10.8c1.3,3.9-2.6,7.7-2.3,11.7
						c0.2,2.2,1.5,4.9-0.2,6.5c-0.9,0.8-2.5,1.1-3.1,2.1c-0.8,1.4,0.7,3.1,0.9,4.7c0.2,2-2.1,3.7-4.3,3.5c-2.2-0.2-4-1.8-4.8-3.6
						c-0.9-1.9-0.9-3.9-0.9-6c3.7-1,5.9-7.1,2.5-8.6c-1.8-0.8-3.8,1.2-4.5,2.9C393.4,211.8,387.5,209.6,380,209.6z"/>
				</g>
				<g>
					<path class="st10" d="M395,218.9c-1.2,2.8-2.4,5.6-3.6,8.4c-0.5,1.1-1,2.3-1.9,3.1c-1.4,1.2-3.5,1.3-5.3,0.9
						c-1.8-0.4-5.3-1.4-7.2-1.2c-4.2,0.4-7.4,2.4-7.6,2.9c-0.5,1,0.2,2.7,0.2,3.8c0,1.2-0.2,2.5-0.8,3.6c-0.4,0.7-1,1.3-1.6,1.9
						c-1.5,1.6-2.9,3.6-2.7,5.8c0.2,3,2.9,5.1,5.4,6.8c1.6,1.1,3.3,2.2,5.2,2.5c1.3,0.2,2.6,0.1,3.9,0c2.7-0.2,5.4-0.5,8-1.3
						c2.6-0.8,5-2.2,6.7-4.3c1.4-1.8,2.1-4.1,2.7-6.3c1-3.6,2.1-7.2,2.2-10.9c0.1-3.5-0.6-6.9-0.9-10.4c-0.3-3-0.4-6.1-0.2-9.1
						c0-0.4,0.1-1.3-0.5-1.3c-0.6-0.1-0.4,0.8-0.5,1.2C396,216.3,395.5,217.6,395,218.9z"/>
				</g>
				<g>
					<path class="st4" d="M372.6,234.8c-0.6,1.2-0.3,2.8,0.7,3.8c0.4,0.4,1.1,0.7,1.7,0.7c0.6-0.1,1.2-0.6,1.1-1.2
						c0-0.2-0.1-0.5,0-0.7s0.4-0.2,0.6-0.2c0.8,0,1.8,0,2.2,0.7c0.1,0.2,0.2,0.5,0.3,0.7c0.3,0.5,1,0.6,1.6,0.5
						c0.9-0.1,1.7-0.3,2.5-0.6c0.4-0.2,0.8-0.3,1.1-0.7c0.3-0.3,0.5-0.8,0.3-1.2c-0.1-0.3-0.4-0.6-0.7-0.8
						C381.5,234.1,374.6,230.3,372.6,234.8z"/>
				</g>
				<g>
					<g>
						<path class="st11" d="M373.8,234.8c1.4,0.9,4.2,0.9,5.5-0.1c0.3-0.2,0.2-0.8-0.2-0.8c-0.9,0-1.7,0.3-2.6,0.4
							c-0.9,0-1.7-0.1-2.6-0.1C373.7,234.3,373.6,234.7,373.8,234.8L373.8,234.8z"/>
					</g>
				</g>
			</g>
		</g>
		<g>
			<path class="st8" d="M410.5,389.9c0,0-1.7-48.5,9.1-51.7c10.8-3.2,34.6-2.3,34.6-2.3l2.2,8.7c0,0-31.2-2.3-35.5,3.7
				c-4.3,5.9,0,42.1,0,42.1L410.5,389.9z"/>
		</g>
	</g>
	<g>
		<g>
			<path class="st4" d="M323.3,318.5l13.9-4.6l12.3,3.1c6.9-1.8,9.2-1.7,23.5-5.4c12-3.1,25.8-9.2,25.8-9.2l15.6-23.4
				c6.6,0.6,15.1,14.1,15.1,14.1s-19,25.8-24.4,27.6c-5.4,1.8-46.7,6.6-60.5,5c-4.4-0.5-12.1-5.3-12.1-5.3l-7,1.6l-8.6,5.8l-1.5-1.2
				l3.4-3.7L323.3,318.5z"/>
		</g>
		<g>
			<path class="st7" d="M425.3,246.6c0,0,18.6,3,18.3,18.9c-0.2,10.4-14.4,29.7-14.4,29.7s-7.8-10.8-17.4-13.8
				c0,0,7.5-14.7,8.1-20.7C420.5,254.7,425.3,246.6,425.3,246.6z"/>
		</g>
		<g>
			<g>
				<path class="st8" d="M295.1,329.6h53.2V325H292v1.5C292.1,328.2,293.5,329.6,295.1,329.6z"/>
			</g>
			<g>
				<rect x="324.3" y="326.5" class="st3" width="18.8" height="1.4"/>
			</g>
			<g>
				<rect x="318.7" y="326.5" class="st3" width="2.8" height="1.4"/>
			</g>
		</g>
	</g>
</g>
<g>
	<g>
		<g>
			<polygon class="st8" points="206.2,310.5 203.7,291.9 204.6,288.5 206.6,291.4 208.9,310.4 			"/>
		</g>
		<g>
			<polygon class="st8" points="218.4,311.8 221.1,293.2 222.9,290.2 224.1,293.4 221.1,312.3 			"/>
		</g>
		<g>
			<polygon class="st8" points="209.9,313.2 210.1,294.1 211.8,291.1 213.2,294.2 212.9,313.2 			"/>
		</g>
	</g>
	<g>
		<polygon class="st2" points="221.2,331.6 206.8,331.6 204.2,307.7 223.1,307.7 		"/>
	</g>
</g>
<g>
	<g>
		<polygon class="st8" points="407.3,512.3 410.8,512.3 371.9,343.1 364.6,343.1 		"/>
	</g>
	<g>
		<polygon class="st8" points="301.9,510.5 305.4,510.5 330.4,343.1 323.1,343.1 		"/>
	</g>
	<g>
		<polygon class="st8" points="249.5,511.6 253,511.6 225.5,343.1 218.2,343.1 		"/>
	</g>
	<g>
		<polygon class="st8" points="152.6,509.8 156.1,509.8 189.2,343.1 181.9,343.1 		"/>
	</g>
	<g>
		<rect x="210.2" y="335.5" class="st12" width="182.4" height="7.6"/>
	</g>
	<g>
		<rect x="151.7" y="335.5" class="st13" width="168.2" height="7.6"/>
	</g>
	<g>
		<rect x="214.2" y="329.2" class="st13" width="195.1" height="10.1"/>
	</g>
	<g>
		<rect x="126" y="329.2" class="st14" width="180.9" height="10.1"/>
	</g>
</g>
</svg>
